<?xml version="1.0" encoding="UTF-8"?><svg id="Your_design" xmlns="http://www.w3.org/2000/svg" viewBox="0 0 1000 1000"><defs><style>.cls-1{fill:#051526;}.cls-2{fill:#ffc400;}.cls-3{fill:#4155e9;}</style></defs><path class="cls-2" d="M270.54,499.86l11.22-8.21c2.55-1.87,6.15-.05,6.15,3.12v10.19c0,3.17-3.6,4.99-6.15,3.12l-11.21-8.22Z"/><path class="cls-3" d="M256.61,499.87l-11.22,8.21c-2.55,1.87-6.15,.05-6.15-3.12v-10.19c0-3.17,3.6-4.99,6.15-3.12l11.21,8.22Z"/><g><path class="cls-1" d="M588.94,492.51c-.03-.12-.03-.2-.03-.29-.13-3.17-.83-6.14-2.12-8.92-1.29-2.79-3-5.23-5.13-7.33-2.15-2.09-4.64-3.74-7.46-4.94-2.82-1.2-5.86-1.8-9.11-1.8s-6.51,.64-9.48,1.93c-2.97,1.27-5.57,3.04-7.81,5.26-2.22-2.22-4.8-3.99-7.74-5.26-2.92-1.29-6.07-1.93-9.4-1.93s-6.26,.61-9.15,1.86c-2.88,1.24-5.42,2.92-7.6,5.04-2.18,2.12-3.9,4.61-5.16,7.44-1.27,2.85-1.9,5.88-1.9,9.1v37.04h13.94v-36.98c0-1.33,.26-2.57,.8-3.73,.53-1.16,1.26-2.16,2.18-3.04,.92-.88,1.99-1.56,3.22-2.06,1.21-.48,2.52-.73,3.88-.73s2.66,.23,3.86,.7c1.2,.47,2.24,1.13,3.14,1.96,.89,.83,1.61,1.84,2.15,3.01,.54,1.18,.82,2.46,.86,3.83v37.04h13.94v-36.79c0-1.36,.26-2.63,.8-3.82,.54-1.18,1.26-2.21,2.18-3.09,.92-.88,2-1.56,3.25-2.09,1.24-.51,2.54-.76,3.92-.76s2.65,.23,3.82,.7c1.18,.47,2.22,1.13,3.14,1.96,.92,.83,1.67,1.83,2.22,2.98,.56,1.16,.85,2.43,.89,3.79v37.12h13.94v-36.93c0-.07-.01-.18-.03-.28Z"/><path class="cls-1" d="M688.91,515.78c-2.13,0-3.89-.56-5.26-1.67-1.36-1.11-2.05-2.78-2.05-5v-59.73h-13.93v60.17c.09,3,.69,5.75,1.8,8.23,1.11,2.47,2.63,4.59,4.56,6.35,1.93,1.75,4.15,3.13,6.71,4.11,2.54,.99,5.26,1.48,8.17,1.48h6.87v-13.94h-6.87Z"/><path class="cls-1" d="M357.49,470.01h-.12c-4.37,0-8.51,.83-12.4,2.53-3.89,1.7-7.3,3.99-10.21,6.9-2.91,2.91-5.22,6.32-6.9,10.21-1.7,3.9-2.54,8.06-2.54,12.46v27.61h13.94v-27.8c0-2.49,.5-4.81,1.48-7,.99-2.18,2.3-4.08,3.92-5.7,1.62-1.64,3.54-2.92,5.75-3.86s4.53-1.42,6.97-1.42h4.23v-13.92h-4.12Z"/><path class="cls-1" d="M498.08,515.16v-15.3c0-4.24-.79-8.21-2.38-11.91-1.58-3.7-3.76-6.94-6.52-9.73-2.76-2.78-6-4.98-9.73-6.58-3.72-1.61-7.7-2.41-11.94-2.41s-8.14,.8-11.85,2.41c-3.7,1.61-6.95,3.8-9.73,6.58-2.78,2.78-4.99,6.03-6.61,9.73-1.63,3.7-2.44,7.67-2.44,11.91s.81,8.15,2.44,11.88c1.63,3.72,3.83,6.98,6.61,9.76,2.78,2.78,6.02,4.98,9.73,6.58,3.7,1.61,7.65,2.41,11.85,2.41,3.12,0,6.11-.54,8.96-1.61,.16-.06,.31-.13,.47-.2v-15.05c-.9,.62-1.87,1.16-2.91,1.61-2.03,.88-4.21,1.32-6.52,1.32s-4.47-.44-6.49-1.32c-2.01-.88-3.78-2.08-5.3-3.6-1.52-1.52-2.72-3.3-3.6-5.33-.88-2.03-1.32-4.18-1.32-6.45s.44-4.48,1.32-6.52c.88-2.03,2.08-3.8,3.6-5.3,1.52-1.5,3.3-2.69,5.33-3.56,2.03-.88,4.18-1.32,6.45-1.32s4.48,.44,6.52,1.32c2.03,.88,3.8,2.07,5.3,3.56,1.5,1.5,2.67,3.26,3.53,5.3,.86,2.03,1.28,4.21,1.28,6.52v29.86h13.94v-14.55h0Z"/><path class="cls-1" d="M657.28,487.92c-1.61-3.73-3.79-6.97-6.55-9.74-2.76-2.75-6-4.94-9.69-6.54-3.7-1.61-7.68-2.41-11.92-2.41-3.07,0-6.02,.44-8.82,1.32-.23,.07-.44,.16-.67,.23v15.38c.93-.64,1.93-1.21,3.01-1.68,2.02-.88,4.17-1.32,6.48-1.32s4.47,.44,6.49,1.32c2.02,.88,3.77,2.06,5.29,3.55,1.52,1.51,2.71,3.28,3.57,5.31,.85,2.03,1.29,4.2,1.29,6.51s-.44,4.43-1.29,6.46c-.86,2.03-2.05,3.8-3.57,5.32-1.52,1.52-3.28,2.72-5.29,3.6-2.02,.88-4.17,1.32-6.49,1.32s-4.46-.44-6.48-1.32c-2.02-.88-3.77-2.08-5.29-3.6-1.52-1.52-2.72-3.29-3.6-5.32-.88-2.03-1.31-4.18-1.32-6.45h0v-50.48h-13.94v50.47c0,4.2,.8,8.16,2.41,11.89,1.59,3.71,3.79,6.97,6.58,9.75,2.78,2.79,6.02,4.99,9.75,6.58,3.73,1.61,7.69,2.41,11.87,2.41s8.22-.8,11.92-2.41c3.7-1.59,6.93-3.79,9.69-6.58,2.76-2.78,4.94-6.04,6.55-9.75,1.61-3.73,2.41-7.69,2.41-11.89s-.8-8.22-2.41-11.93Z"/><path class="cls-1" d="M315.39,487.99c-1.61-3.71-3.79-6.97-6.55-9.75-2.76-2.79-6-4.99-9.69-6.58-3.7-1.61-7.68-2.41-11.92-2.41s-8.14,.8-11.87,2.41c-3.73,1.59-6.97,3.79-9.75,6.58-2.79,2.78-4.99,6.04-6.58,9.75-.38,.89-.71,1.79-1.01,2.71l12.52,9.18h0c0-2.29,.44-4.43,1.32-6.46,.88-2.03,2.08-3.8,3.6-5.32,1.52-1.52,3.28-2.72,5.29-3.6,2.02-.88,4.17-1.32,6.48-1.32s4.47,.44,6.49,1.32c2.02,.88,3.77,2.08,5.29,3.6,1.52,1.52,2.71,3.29,3.57,5.32,.85,2.03,1.29,4.18,1.29,6.46s-.44,4.43-1.29,6.46c-.86,2.03-2.05,3.8-3.57,5.32-1.52,1.52-3.27,2.72-5.29,3.6-2.02,.88-4.17,1.32-6.49,1.32s-4.46-.44-6.48-1.32c-2.02-.88-3.77-2.08-5.29-3.6-1.52-1.52-2.72-3.29-3.6-5.32-.88-2.03-1.31-4.18-1.32-6.45h0l-12.53,9.16h0l-1.4,1.03v40.54h13.94v-25.11c1.51,.98,3.1,1.85,4.81,2.58,3.73,1.61,7.69,2.41,11.87,2.41s8.22-.8,11.92-2.41c3.7-1.59,6.93-3.79,9.69-6.58,2.76-2.78,4.94-6.04,6.55-9.75,1.61-3.73,2.41-7.69,2.41-11.89s-.8-8.16-2.41-11.89Z"/><path class="cls-1" d="M429.81,494.12c-.41-2.11-1.04-4.15-1.89-6.14-1.61-3.71-3.79-6.97-6.55-9.75-2.76-2.79-6-4.99-9.69-6.58-3.7-1.61-7.68-2.41-11.92-2.41s-8.22,.8-11.92,2.41c-3.7,1.59-6.93,3.79-9.69,6.58-2.76,2.78-4.94,6.04-6.55,9.75-1.61,3.73-2.41,7.69-2.41,11.89s.8,8.16,2.41,11.89c1.61,3.71,3.79,6.97,6.55,9.75,2.76,2.79,6,4.99,9.69,6.58,3.7,1.61,7.68,2.41,11.92,2.41s8.22-.8,11.92-2.41c3.7-1.59,6.93-3.79,9.69-6.58,2.49-2.51,4.48-5.43,6.04-8.7h-17.15c-1.2,.98-2.53,1.8-4,2.44-2.02,.88-4.17,1.32-6.49,1.32s-4.47-.44-6.49-1.32c-2.02-.88-3.77-2.08-5.29-3.6-1.52-1.52-2.71-3.29-3.57-5.32-.85-2.03-1.29-4.18-1.29-6.46s.44-4.43,1.29-6.46c.86-2.03,2.05-3.8,3.57-5.32s3.28-2.72,5.29-3.6c2.02-.88,4.17-1.32,6.49-1.32s4.47,.44,6.49,1.32c2.02,.88,3.77,2.08,5.29,3.6s2.71,3.29,3.57,5.32c.1,.23,.19,.47,.26,.72h-15.62c-3.17,0-5.75,2.57-5.75,5.75s2.57,5.75,5.75,5.75h30.05c.34-1.83,.51-3.7,.53-5.62v-.13c0-1.96-.18-3.87-.53-5.75Z"/><path class="cls-1" d="M760.23,494.12c-.41-2.11-1.04-4.15-1.89-6.14-1.61-3.71-3.79-6.97-6.55-9.75-2.76-2.79-6-4.99-9.69-6.58-3.7-1.61-7.68-2.41-11.92-2.41s-8.22,.8-11.92,2.41c-3.7,1.59-6.93,3.79-9.69,6.58-2.76,2.78-4.94,6.04-6.55,9.75-1.61,3.73-2.41,7.69-2.41,11.89s.8,8.16,2.41,11.89c1.61,3.71,3.79,6.97,6.55,9.75,2.76,2.79,6,4.99,9.69,6.58,3.7,1.61,7.68,2.41,11.92,2.41s8.22-.8,11.92-2.41c3.7-1.59,6.93-3.79,9.69-6.58,2.49-2.51,4.48-5.43,6.04-8.7h-17.15c-1.2,.98-2.53,1.8-4,2.44-2.02,.88-4.17,1.32-6.49,1.32s-4.47-.44-6.49-1.32c-2.02-.88-3.77-2.08-5.29-3.6-1.52-1.52-2.71-3.29-3.57-5.32-.85-2.03-1.29-4.18-1.29-6.46s.44-4.43,1.29-6.46c.86-2.03,2.05-3.8,3.57-5.32,1.52-1.52,3.28-2.72,5.29-3.6,2.02-.88,4.17-1.32,6.49-1.32s4.47,.44,6.49,1.32c2.02,.88,3.77,2.08,5.29,3.6s2.71,3.29,3.57,5.32c.1,.23,.19,.47,.26,.72h-15.62c-3.17,0-5.75,2.57-5.75,5.75s2.57,5.75,5.75,5.75h30.05c.34-1.83,.51-3.7,.53-5.62v-.13c0-1.96-.18-3.87-.53-5.75Z"/></g></svg>